Coordinates
version=1
nRows=21
nColumns=12
inDegrees=yes

Units are S.I. units (second, meters, Newtons, ...)
Angles are in degrees

endheader
time	SC_y	SC_z	SC_x	AC_y	AC_z	AC_x	GH_y	GH_z	GH_yy	EL_x	PS_y
       0.0              -20.34          16.17          31.73          57.48          3.547          12.44         -117.8          78.55          62.96          82.74          108.7
   0.02296              -20.34          16.17          31.73          57.48          3.545          12.44         -117.8          78.54          62.93          82.74          108.7
   0.04592              -20.34          16.17          31.74          57.48          3.543          12.44         -117.8          78.53           62.9          82.74          108.7
   0.06888              -20.34          16.17          31.74          57.47          3.541          12.44         -117.8          78.52          62.87          82.74          108.6
   0.09184              -20.34          16.17          31.75          57.47          3.539          12.44         -117.8          78.51          62.83          82.73          108.6
    0.1148              -20.34          16.18          31.75          57.47          3.536          12.44         -117.8           78.5           62.8          82.73          108.6
    0.1378              -20.34          16.18          31.76          57.47          3.533          12.44         -117.8          78.48          62.76          82.73          108.6
    0.1607              -20.34          16.18          31.76          57.46           3.53          12.44         -117.7          78.47          62.72          82.73          108.6
    0.1837              -20.34          16.19          31.77          57.46          3.527          12.43         -117.7          78.46          62.68          82.72          108.5
    0.2066              -20.34          16.19          31.78          57.46          3.524          12.43         -117.7          78.44          62.63          82.72          108.5
    0.2296              -20.34          16.19          31.78          57.45           3.52          12.43         -117.7          78.42          62.58          82.71          108.5
    0.2525              -20.34           16.2          31.79          57.45          3.516          12.43         -117.6          78.41          62.52          82.71          108.5
    0.2755              -20.34           16.2           31.8          57.44          3.512          12.43         -117.6          78.39          62.46          82.71          108.4
    0.2985              -20.34           16.2          31.81          57.44          3.508          12.43         -117.6          78.37           62.4           82.7          108.4
    0.3214              -20.34          16.21          31.82          57.44          3.503          12.42         -117.6          78.35          62.33           82.7          108.4
    0.3444              -20.33          16.21          31.83          57.43          3.498          12.42         -117.5          78.32          62.26          82.69          108.3
    0.3673              -20.33          16.22          31.84          57.42          3.492          12.42         -117.5           78.3          62.18          82.68          108.3
    0.3903              -20.33          16.23          31.85          57.42          3.486          12.42         -117.5          78.27          62.09          82.68          108.2
    0.4133              -20.33          16.23          31.86          57.41          3.479          12.41         -117.4          78.24          61.99          82.67          108.2
    0.4362              -20.33          16.24          31.88           57.4          3.471          12.41         -117.4           78.2          61.89          82.66          108.1
    0.4592              -20.33          16.25          31.89           57.4          3.463          12.41         -117.3          78.16          61.77          82.65          108.1
